<mxfile host="app.diagrams.net" agent="Mozilla/5.0 (Windows NT 10.0; Win64; x64) AppleWebKit/537.36 (KHTML, like Gecko) Chrome/128.0.0.0 Safari/537.36 Edg/128.0.0.0" version="24.7.10">
  <diagram id="6a731a19-8d31-9384-78a2-239565b7b9f0" name="Page-1">
    <mxGraphModel dx="3434" dy="1934" grid="1" gridSize="10" guides="1" tooltips="1" connect="1" arrows="1" fold="1" page="1" pageScale="1" pageWidth="1600" pageHeight="900" background="none" math="0" shadow="0">
      <root>
        <mxCell id="0" />
        <mxCell id="1" parent="0" />
        <mxCell id="11IpipOqJez2AS0h7bXD-518" value="" style="group" vertex="1" connectable="0" parent="1">
          <mxGeometry x="-1530" y="-126.49" width="1493.98" height="112.43" as="geometry" />
        </mxCell>
        <mxCell id="11IpipOqJez2AS0h7bXD-239" value="" style="strokeColor=#d3d3d5;fillColor=#bbc8d3;fontSize=10;strokeWidth=2;fontFamily=Helvetica;html=1;opacity=60;" vertex="1" parent="11IpipOqJez2AS0h7bXD-518">
          <mxGeometry width="249.01784601954978" height="112.43" as="geometry" />
        </mxCell>
        <mxCell id="11IpipOqJez2AS0h7bXD-246" value="" style="strokeColor=#d3d3d5;fillColor=#d3bbbc;fontSize=10;strokeWidth=2;fontFamily=Helvetica;html=1;opacity=60;" vertex="1" parent="11IpipOqJez2AS0h7bXD-518">
          <mxGeometry x="249.01784601954978" width="249.01784601954978" height="112.43" as="geometry" />
        </mxCell>
        <mxCell id="11IpipOqJez2AS0h7bXD-253" value="" style="strokeColor=#d3d3d5;fillColor=#bbd3c0;fontSize=10;strokeWidth=2;fontFamily=Helvetica;html=1;opacity=60;" vertex="1" parent="11IpipOqJez2AS0h7bXD-518">
          <mxGeometry x="498.03569203909933" width="249.01784601954978" height="112.43" as="geometry" />
        </mxCell>
        <mxCell id="11IpipOqJez2AS0h7bXD-386" value="" style="strokeColor=#d3d3d5;fillColor=#d0bbd3;fontSize=10;strokeWidth=2;fontFamily=Helvetica;html=1;opacity=60;" vertex="1" parent="11IpipOqJez2AS0h7bXD-518">
          <mxGeometry x="746.9264619413507" width="249.01784601954978" height="112.43" as="geometry" />
        </mxCell>
        <mxCell id="11IpipOqJez2AS0h7bXD-392" value="" style="strokeColor=#d3d3d5;fillColor=#d3c6bb;fontSize=10;strokeWidth=2;fontFamily=Helvetica;html=1;opacity=60;" vertex="1" parent="11IpipOqJez2AS0h7bXD-518">
          <mxGeometry x="995.9443079609006" width="249.01784601954978" height="112.43" as="geometry" />
        </mxCell>
        <mxCell id="11IpipOqJez2AS0h7bXD-398" value="" style="strokeColor=#d3d3d5;fillColor=#bbcfd3;fontSize=10;strokeWidth=2;fontFamily=Helvetica;html=1;opacity=60;" vertex="1" parent="11IpipOqJez2AS0h7bXD-518">
          <mxGeometry x="1244.9621539804502" width="249.01784601954978" height="112.43" as="geometry" />
        </mxCell>
        <mxCell id="11IpipOqJez2AS0h7bXD-502" value="" style="group" vertex="1" connectable="0" parent="1">
          <mxGeometry x="-1529.66" y="-296.49" width="1493.98" height="173.98" as="geometry" />
        </mxCell>
        <mxCell id="11IpipOqJez2AS0h7bXD-238" value="" style="strokeColor=#d3d3d5;fillColor=#bbc8d3;fontSize=10;strokeWidth=2;fontFamily=Helvetica;html=1;opacity=90;" vertex="1" parent="11IpipOqJez2AS0h7bXD-502">
          <mxGeometry width="249.01784601954978" height="173.98" as="geometry" />
        </mxCell>
        <mxCell id="11IpipOqJez2AS0h7bXD-245" value="" style="strokeColor=#d3d3d5;fillColor=#d3bbbc;fontSize=10;strokeWidth=2;fontFamily=Helvetica;html=1;opacity=90;" vertex="1" parent="11IpipOqJez2AS0h7bXD-502">
          <mxGeometry x="249.01784601954978" width="249.01784601954978" height="173.98" as="geometry" />
        </mxCell>
        <mxCell id="11IpipOqJez2AS0h7bXD-252" value="" style="strokeColor=#d3d3d5;fillColor=#bbd3c0;fontSize=10;strokeWidth=2;fontFamily=Helvetica;html=1;opacity=90;" vertex="1" parent="11IpipOqJez2AS0h7bXD-502">
          <mxGeometry x="498.03569203909933" width="249.01784601954978" height="173.98" as="geometry" />
        </mxCell>
        <mxCell id="11IpipOqJez2AS0h7bXD-385" value="" style="strokeColor=#d3d3d5;fillColor=#d0bbd3;fontSize=10;strokeWidth=2;fontFamily=Helvetica;html=1;opacity=90;" vertex="1" parent="11IpipOqJez2AS0h7bXD-502">
          <mxGeometry x="746.9264619413507" width="249.01784601954978" height="173.98" as="geometry" />
        </mxCell>
        <mxCell id="11IpipOqJez2AS0h7bXD-391" value="" style="strokeColor=#d3d3d5;fillColor=#d3c6bb;fontSize=10;strokeWidth=2;fontFamily=Helvetica;html=1;opacity=90;" vertex="1" parent="11IpipOqJez2AS0h7bXD-502">
          <mxGeometry x="995.9443079609006" width="249.01784601954978" height="173.98" as="geometry" />
        </mxCell>
        <mxCell id="11IpipOqJez2AS0h7bXD-397" value="" style="strokeColor=#d3d3d5;fillColor=#bbcfd3;fontSize=10;strokeWidth=2;fontFamily=Helvetica;html=1;opacity=90;" vertex="1" parent="11IpipOqJez2AS0h7bXD-502">
          <mxGeometry x="1244.9621539804502" width="249.01784601954978" height="173.98" as="geometry" />
        </mxCell>
        <mxCell id="11IpipOqJez2AS0h7bXD-500" value="Reviewed UFR" style="rounded=1;whiteSpace=wrap;html=1;" vertex="1" parent="11IpipOqJez2AS0h7bXD-502">
          <mxGeometry x="562.54" y="40" width="120" height="83.18" as="geometry" />
        </mxCell>
        <mxCell id="11IpipOqJez2AS0h7bXD-503" value="" style="group" vertex="1" connectable="0" parent="1">
          <mxGeometry x="-1529.66" y="-466.49" width="1495.51" height="170" as="geometry" />
        </mxCell>
        <mxCell id="74" value="" style="strokeColor=#d3d3d5;fillColor=#bbc8d3;fontSize=10;strokeWidth=2;fontFamily=Helvetica;html=1;opacity=60;" parent="11IpipOqJez2AS0h7bXD-503" vertex="1">
          <mxGeometry width="249.02" height="170" as="geometry" />
        </mxCell>
        <mxCell id="81" value="" style="strokeColor=#d3d3d5;fillColor=#d3bbbc;fontSize=10;strokeWidth=2;fontFamily=Helvetica;html=1;opacity=60;fontStyle=4" parent="11IpipOqJez2AS0h7bXD-503" vertex="1">
          <mxGeometry x="248.9000000000001" width="249.02" height="170" as="geometry" />
        </mxCell>
        <mxCell id="88" value="" style="strokeColor=#d3d3d5;fillColor=#bbd3c0;fontSize=10;strokeWidth=2;fontFamily=Helvetica;html=1;opacity=60;fontStyle=4" parent="11IpipOqJez2AS0h7bXD-503" vertex="1">
          <mxGeometry x="497.9100000000001" width="249.02" height="170" as="geometry" />
        </mxCell>
        <mxCell id="11IpipOqJez2AS0h7bXD-165" value="" style="strokeColor=#d3d3d5;fillColor=#d0bbd3;fontSize=10;strokeWidth=2;fontFamily=Helvetica;html=1;opacity=60;" vertex="1" parent="11IpipOqJez2AS0h7bXD-503">
          <mxGeometry x="748.46" width="249.02" height="170" as="geometry" />
        </mxCell>
        <mxCell id="11IpipOqJez2AS0h7bXD-172" value="" style="strokeColor=#d3d3d5;fillColor=#d3c6bb;fontSize=10;strokeWidth=2;fontFamily=Helvetica;html=1;opacity=60;fontStyle=4" vertex="1" parent="11IpipOqJez2AS0h7bXD-503">
          <mxGeometry x="997.4800000000001" width="249.02" height="170" as="geometry" />
        </mxCell>
        <mxCell id="11IpipOqJez2AS0h7bXD-179" value="" style="strokeColor=#d3d3d5;fillColor=#bbcfd3;fontSize=10;strokeWidth=2;fontFamily=Helvetica;html=1;opacity=60;fontStyle=4" vertex="1" parent="11IpipOqJez2AS0h7bXD-503">
          <mxGeometry x="1246.49" width="249.02" height="170" as="geometry" />
        </mxCell>
        <mxCell id="11IpipOqJez2AS0h7bXD-473" value="Reviewed UFR" style="rounded=1;whiteSpace=wrap;html=1;" vertex="1" parent="11IpipOqJez2AS0h7bXD-503">
          <mxGeometry x="562.42" y="45" width="120" height="85" as="geometry" />
        </mxCell>
        <mxCell id="11IpipOqJez2AS0h7bXD-454" value="" style="group" vertex="1" connectable="0" parent="1">
          <mxGeometry x="-1529.78" y="-645.6800000000001" width="1494.1" height="179.19" as="geometry" />
        </mxCell>
        <mxCell id="71" value="" style="strokeColor=#d3d3d5;fillColor=#bbc8d3;fontSize=10;strokeWidth=2;fontFamily=Helvetica;html=1;opacity=90;" parent="11IpipOqJez2AS0h7bXD-454" vertex="1">
          <mxGeometry width="249.01666666666668" height="179.19" as="geometry" />
        </mxCell>
        <mxCell id="78" value="" style="strokeColor=#d3d3d5;fillColor=#d3bbbc;fontSize=10;strokeWidth=2;fontFamily=Helvetica;html=1;opacity=90;" parent="11IpipOqJez2AS0h7bXD-454" vertex="1">
          <mxGeometry x="249.0166666666666" width="249.01666666666668" height="179.19" as="geometry" />
        </mxCell>
        <mxCell id="85" value="" style="strokeColor=#d3d3d5;fillColor=#bbd3c0;fontSize=10;strokeWidth=2;fontFamily=Helvetica;html=1;opacity=90;" parent="11IpipOqJez2AS0h7bXD-454" vertex="1">
          <mxGeometry x="498.0333333333334" width="249.01666666666668" height="179.19" as="geometry" />
        </mxCell>
        <mxCell id="11IpipOqJez2AS0h7bXD-162" value="" style="strokeColor=#d3d3d5;fillColor=#d0bbd3;fontSize=10;strokeWidth=2;fontFamily=Helvetica;html=1;opacity=90;" vertex="1" parent="11IpipOqJez2AS0h7bXD-454">
          <mxGeometry x="747.05" width="249.01666666666668" height="179.19" as="geometry" />
        </mxCell>
        <mxCell id="11IpipOqJez2AS0h7bXD-169" value="" style="strokeColor=#d3d3d5;fillColor=#d3c6bb;fontSize=10;strokeWidth=2;fontFamily=Helvetica;html=1;opacity=90;" vertex="1" parent="11IpipOqJez2AS0h7bXD-454">
          <mxGeometry x="996.0666666666668" width="249.01666666666668" height="179.19" as="geometry" />
        </mxCell>
        <mxCell id="11IpipOqJez2AS0h7bXD-176" value="" style="strokeColor=#d3d3d5;fillColor=#bbcfd3;fontSize=10;strokeWidth=2;fontFamily=Helvetica;html=1;opacity=90;" vertex="1" parent="11IpipOqJez2AS0h7bXD-454">
          <mxGeometry x="1245.0833333333335" width="249.01666666666668" height="179.19" as="geometry" />
        </mxCell>
        <mxCell id="11IpipOqJez2AS0h7bXD-462" value="Review &amp;amp; Update&lt;div&gt;UFR&lt;/div&gt;" style="rounded=1;whiteSpace=wrap;html=1;" vertex="1" parent="11IpipOqJez2AS0h7bXD-454">
          <mxGeometry x="299.7799999999999" y="59.59000000000006" width="120" height="60" as="geometry" />
        </mxCell>
        <mxCell id="11IpipOqJez2AS0h7bXD-481" style="edgeStyle=orthogonalEdgeStyle;rounded=0;orthogonalLoop=1;jettySize=auto;html=1;exitX=1;exitY=0.5;exitDx=0;exitDy=0;" edge="1" parent="11IpipOqJez2AS0h7bXD-454" source="11IpipOqJez2AS0h7bXD-474" target="11IpipOqJez2AS0h7bXD-475">
          <mxGeometry relative="1" as="geometry" />
        </mxCell>
        <mxCell id="11IpipOqJez2AS0h7bXD-474" value="Approved UFR" style="rounded=1;whiteSpace=wrap;html=1;" vertex="1" parent="11IpipOqJez2AS0h7bXD-454">
          <mxGeometry x="1049.78" y="49.190000000000055" width="120" height="60" as="geometry" />
        </mxCell>
        <mxCell id="11IpipOqJez2AS0h7bXD-475" value="Fully Funded UFR" style="rounded=1;whiteSpace=wrap;html=1;" vertex="1" parent="11IpipOqJez2AS0h7bXD-454">
          <mxGeometry x="1309.59" y="49.190000000000055" width="120" height="60" as="geometry" />
        </mxCell>
        <mxCell id="11IpipOqJez2AS0h7bXD-458" value="" style="group" vertex="1" connectable="0" parent="1">
          <mxGeometry x="-1529.66" y="-126.49" width="1493.98" height="120.86" as="geometry" />
        </mxCell>
        <mxCell id="11IpipOqJez2AS0h7bXD-471" value="Deliberated UFR" style="rounded=1;whiteSpace=wrap;html=1;" vertex="1" parent="11IpipOqJez2AS0h7bXD-458">
          <mxGeometry x="809.6600000000001" y="20" width="120" height="60" as="geometry" />
        </mxCell>
        <mxCell id="56" value="Project&#xa;" style="strokeColor=#d3d3d5;fillColor=#23445D;fontSize=10;strokeWidth=2;fontFamily=Helvetica;html=1;fontColor=#FFFFFF;fontStyle=0;spacingBottom=8;spacingRight=0;spacingLeft=83;" parent="1" vertex="1">
          <mxGeometry x="-1564.44" y="-880" width="1528.7616405003782" height="46.486486486486505" as="geometry" />
        </mxCell>
        <mxCell id="57" value="Technical Division" style="strokeColor=#d3d3d5;fillColor=#23445D;fontSize=10;strokeWidth=2;horizontal=0;fontFamily=Helvetica;html=1;fontColor=#FFFFFF;fontStyle=0" parent="1" vertex="1">
          <mxGeometry x="-1564.44" y="-820.0035135135136" width="19.2539249433297" height="174.32432432432438" as="geometry" />
        </mxCell>
        <mxCell id="59" value="v 1.0" style="strokeColor=#d3d3d5;fillColor=#5d7f99;fontSize=10;strokeWidth=2;fontFamily=Helvetica;html=1;labelBackgroundColor=none;fontColor=#FFFFFF;" parent="1" vertex="1">
          <mxGeometry x="-1564.44" y="-880" width="34.66" height="60" as="geometry" />
        </mxCell>
        <mxCell id="61" value="Unspecified UFR Personnel" style="strokeColor=#d3d3d5;fillColor=#5d7f99;fontSize=10;strokeWidth=2;horizontal=0;fontFamily=Helvetica;html=1;labelBackgroundColor=none;fontColor=#FFFFFF;" parent="1" vertex="1">
          <mxGeometry x="-1545.1827710236673" y="-819.773950617284" width="15.407782893317032" height="174.09160493827164" as="geometry" />
        </mxCell>
        <mxCell id="64" value="Finance Division" style="strokeColor=#d3d3d5;fillColor=#23445D;fontSize=10;strokeWidth=2;horizontal=0;fontFamily=Helvetica;html=1;fontColor=#FFFFFF;fontStyle=0" parent="1" vertex="1">
          <mxGeometry x="-1564.44" y="-645.6800000000001" width="19.25" height="179.19" as="geometry" />
        </mxCell>
        <mxCell id="66" value="UFR Management Team" style="strokeColor=#d3d3d5;fillColor=#5d7f99;fontSize=10;strokeWidth=2;horizontal=0;fontFamily=Helvetica;html=1;labelBackgroundColor=none;fontColor=#FFFFFF;" parent="1" vertex="1">
          <mxGeometry x="-1545.19" y="-646.49" width="15.4" height="180" as="geometry" />
        </mxCell>
        <mxCell id="67" value="Front Office Group" style="strokeColor=#d3d3d5;fillColor=#23445D;fontSize=10;strokeWidth=2;horizontal=0;fontFamily=Helvetica;html=1;fontColor=#FFFFFF;fontStyle=0" parent="1" vertex="1">
          <mxGeometry x="-1564.44" y="-466.49" width="19.25" height="340" as="geometry" />
        </mxCell>
        <mxCell id="11IpipOqJez2AS0h7bXD-149" value="Business Ranking" style="strokeColor=#d3d3d5;fillColor=#5d7f99;fontSize=10;strokeWidth=2;horizontal=0;fontFamily=Helvetica;html=1;labelBackgroundColor=none;fontColor=#FFFFFF;" vertex="1" parent="1">
          <mxGeometry x="-1545.06" y="-466.49" width="15.4" height="170" as="geometry" />
        </mxCell>
        <mxCell id="11IpipOqJez2AS0h7bXD-153" value="Technical Ranking" style="strokeColor=#d3d3d5;fillColor=#5d7f99;fontSize=10;strokeWidth=2;horizontal=0;fontFamily=Helvetica;html=1;labelBackgroundColor=none;fontColor=#FFFFFF;" vertex="1" parent="1">
          <mxGeometry x="-1545.06" y="-296.49" width="15.4" height="170" as="geometry" />
        </mxCell>
        <mxCell id="11IpipOqJez2AS0h7bXD-158" value="RQ Director" style="strokeColor=#d3d3d5;fillColor=#23445D;fontSize=10;strokeWidth=2;horizontal=0;fontFamily=Helvetica;html=1;fontColor=#FFFFFF;fontStyle=0" vertex="1" parent="1">
          <mxGeometry x="-1564.31" y="-126.49" width="34.31" height="120" as="geometry" />
        </mxCell>
        <mxCell id="11IpipOqJez2AS0h7bXD-453" value="" style="group" vertex="1" connectable="0" parent="1">
          <mxGeometry x="-1529.78" y="-820" width="1494.23" height="173.51" as="geometry" />
        </mxCell>
        <mxCell id="68" value="" style="strokeColor=#d3d3d5;fillColor=#bbc8d3;fontSize=10;strokeWidth=2;fontFamily=Helvetica;html=1;opacity=60;" parent="11IpipOqJez2AS0h7bXD-453" vertex="1">
          <mxGeometry width="249.01694012541878" height="173.51" as="geometry" />
        </mxCell>
        <mxCell id="75" value="" style="strokeColor=#d3d3d5;fillColor=#d3bbbc;fontSize=10;strokeWidth=2;fontFamily=Helvetica;html=1;opacity=60;" parent="11IpipOqJez2AS0h7bXD-453" vertex="1">
          <mxGeometry x="249.0169401254187" width="249.1452993729061" height="173.51" as="geometry" />
        </mxCell>
        <mxCell id="82" value="" style="strokeColor=#d3d3d5;fillColor=#bbd3c0;fontSize=10;strokeWidth=2;fontFamily=Helvetica;html=1;opacity=60;" parent="11IpipOqJez2AS0h7bXD-453" vertex="1">
          <mxGeometry x="498.0338802508376" width="249.1452993729061" height="173.51" as="geometry" />
        </mxCell>
        <mxCell id="11IpipOqJez2AS0h7bXD-159" value="" style="strokeColor=#d3d3d5;fillColor=#d0bbd3;fontSize=10;strokeWidth=2;fontFamily=Helvetica;html=1;opacity=60;" vertex="1" parent="11IpipOqJez2AS0h7bXD-453">
          <mxGeometry x="747.0508203762563" width="249.01694012541878" height="173.51" as="geometry" />
        </mxCell>
        <mxCell id="11IpipOqJez2AS0h7bXD-166" value="" style="strokeColor=#d3d3d5;fillColor=#d3c6bb;fontSize=10;strokeWidth=2;fontFamily=Helvetica;html=1;opacity=60;" vertex="1" parent="11IpipOqJez2AS0h7bXD-453">
          <mxGeometry x="996.0677605016753" width="249.1452993729061" height="173.51" as="geometry" />
        </mxCell>
        <mxCell id="11IpipOqJez2AS0h7bXD-173" value="" style="strokeColor=#d3d3d5;fillColor=#bbcfd3;fontSize=10;strokeWidth=2;fontFamily=Helvetica;html=1;opacity=60;" vertex="1" parent="11IpipOqJez2AS0h7bXD-453">
          <mxGeometry x="1245.084700627094" width="249.1452993729061" height="173.51" as="geometry" />
        </mxCell>
        <mxCell id="11IpipOqJez2AS0h7bXD-460" value="Submit UFR" style="rounded=1;whiteSpace=wrap;html=1;" vertex="1" parent="11IpipOqJez2AS0h7bXD-453">
          <mxGeometry x="59.77999999999997" y="93.50999999999999" width="120" height="60" as="geometry" />
        </mxCell>
        <mxCell id="11IpipOqJez2AS0h7bXD-483" style="edgeStyle=orthogonalEdgeStyle;rounded=0;orthogonalLoop=1;jettySize=auto;html=1;exitX=0;exitY=0.5;exitDx=0;exitDy=0;entryX=0;entryY=0.5;entryDx=0;entryDy=0;" edge="1" parent="11IpipOqJez2AS0h7bXD-453" source="11IpipOqJez2AS0h7bXD-482" target="11IpipOqJez2AS0h7bXD-460">
          <mxGeometry relative="1" as="geometry" />
        </mxCell>
        <mxCell id="11IpipOqJez2AS0h7bXD-482" value="Create UFR" style="rounded=1;whiteSpace=wrap;html=1;" vertex="1" parent="11IpipOqJez2AS0h7bXD-453">
          <mxGeometry x="59.77999999999997" y="13.509999999999991" width="120" height="60" as="geometry" />
        </mxCell>
        <mxCell id="11IpipOqJez2AS0h7bXD-479" style="edgeStyle=orthogonalEdgeStyle;rounded=0;orthogonalLoop=1;jettySize=auto;html=1;exitX=1;exitY=0.5;exitDx=0;exitDy=0;entryX=0;entryY=0.5;entryDx=0;entryDy=0;" edge="1" parent="1" source="11IpipOqJez2AS0h7bXD-473" target="11IpipOqJez2AS0h7bXD-471">
          <mxGeometry relative="1" as="geometry" />
        </mxCell>
        <mxCell id="11IpipOqJez2AS0h7bXD-476" style="edgeStyle=orthogonalEdgeStyle;rounded=0;orthogonalLoop=1;jettySize=auto;html=1;exitX=0.5;exitY=1;exitDx=0;exitDy=0;" edge="1" parent="1" source="11IpipOqJez2AS0h7bXD-460" target="11IpipOqJez2AS0h7bXD-462">
          <mxGeometry relative="1" as="geometry" />
        </mxCell>
        <mxCell id="11IpipOqJez2AS0h7bXD-496" value="Notify UFR Finance Team" style="edgeLabel;html=1;align=center;verticalAlign=middle;resizable=0;points=[];" vertex="1" connectable="0" parent="11IpipOqJez2AS0h7bXD-476">
          <mxGeometry x="-0.181" y="3" relative="1" as="geometry">
            <mxPoint as="offset" />
          </mxGeometry>
        </mxCell>
        <mxCell id="11IpipOqJez2AS0h7bXD-478" style="edgeStyle=orthogonalEdgeStyle;rounded=0;orthogonalLoop=1;jettySize=auto;html=1;exitX=0.626;exitY=1.033;exitDx=0;exitDy=0;exitPerimeter=0;entryX=0;entryY=0.5;entryDx=0;entryDy=0;" edge="1" parent="1" source="11IpipOqJez2AS0h7bXD-462" target="11IpipOqJez2AS0h7bXD-473">
          <mxGeometry relative="1" as="geometry">
            <mxPoint x="-960" y="-396.49" as="targetPoint" />
            <Array as="points">
              <mxPoint x="-1155" y="-376.49" />
              <mxPoint x="-970" y="-376.49" />
              <mxPoint x="-970" y="-379.49" />
            </Array>
          </mxGeometry>
        </mxCell>
        <mxCell id="11IpipOqJez2AS0h7bXD-515" value="Business Ranking" style="edgeLabel;html=1;align=center;verticalAlign=middle;resizable=0;points=[];" vertex="1" connectable="0" parent="11IpipOqJez2AS0h7bXD-478">
          <mxGeometry x="0.2254" y="-1" relative="1" as="geometry">
            <mxPoint as="offset" />
          </mxGeometry>
        </mxCell>
        <mxCell id="11IpipOqJez2AS0h7bXD-480" style="edgeStyle=orthogonalEdgeStyle;rounded=0;orthogonalLoop=1;jettySize=auto;html=1;exitX=1;exitY=0.5;exitDx=0;exitDy=0;entryX=0.426;entryY=0.956;entryDx=0;entryDy=0;entryPerimeter=0;" edge="1" parent="1" source="11IpipOqJez2AS0h7bXD-471" target="11IpipOqJez2AS0h7bXD-474">
          <mxGeometry relative="1" as="geometry" />
        </mxCell>
        <mxCell id="11IpipOqJez2AS0h7bXD-514" style="edgeStyle=orthogonalEdgeStyle;rounded=0;orthogonalLoop=1;jettySize=auto;html=1;exitX=0.5;exitY=1;exitDx=0;exitDy=0;entryX=0;entryY=0.5;entryDx=0;entryDy=0;" edge="1" parent="1" source="11IpipOqJez2AS0h7bXD-462" target="11IpipOqJez2AS0h7bXD-500">
          <mxGeometry relative="1" as="geometry" />
        </mxCell>
        <mxCell id="11IpipOqJez2AS0h7bXD-516" value="Technical Ranking" style="edgeLabel;html=1;align=center;verticalAlign=middle;resizable=0;points=[];" vertex="1" connectable="0" parent="11IpipOqJez2AS0h7bXD-514">
          <mxGeometry x="0.4707" y="-4" relative="1" as="geometry">
            <mxPoint as="offset" />
          </mxGeometry>
        </mxCell>
        <mxCell id="11IpipOqJez2AS0h7bXD-517" style="edgeStyle=orthogonalEdgeStyle;rounded=0;orthogonalLoop=1;jettySize=auto;html=1;exitX=1;exitY=0.5;exitDx=0;exitDy=0;entryX=0;entryY=0.5;entryDx=0;entryDy=0;" edge="1" parent="1" source="11IpipOqJez2AS0h7bXD-500" target="11IpipOqJez2AS0h7bXD-471">
          <mxGeometry relative="1" as="geometry" />
        </mxCell>
        <mxCell id="140" value="" style="group;fontSize=10;strokeColor=#d3d3d5;fontColor=#d3d3d5;container=0;" parent="1" vertex="1" connectable="0">
          <mxGeometry x="-1529.78" y="-856.76" width="249.01750000000004" height="36.76000000000003" as="geometry" />
        </mxCell>
        <mxCell id="11IpipOqJez2AS0h7bXD-231" value="" style="group;fontSize=10;strokeColor=#5a3a5e;" vertex="1" connectable="0" parent="1">
          <mxGeometry x="-782.7275" y="-856.76" width="249.01750000000004" height="36.76000000000003" as="geometry" />
        </mxCell>
        <mxCell id="11IpipOqJez2AS0h7bXD-232" value="Approval" style="strokeColor=#d3d3d5;fillColor=#5a3a5e;fontSize=10;strokeWidth=2;fontFamily=Helvetica;html=1;labelBackgroundColor=none;fontColor=#FFFFFF;" vertex="1" parent="11IpipOqJez2AS0h7bXD-231">
          <mxGeometry width="249.01710321627192" height="36.76000000000003" as="geometry" />
        </mxCell>
        <mxCell id="11IpipOqJez2AS0h7bXD-233" value="Funding" style="strokeColor=#d3d3d5;fillColor=#BD6C22;fontSize=10;strokeWidth=2;fontFamily=Helvetica;html=1;labelBackgroundColor=none;fontColor=#FFFFFF;" vertex="1" parent="11IpipOqJez2AS0h7bXD-231">
          <mxGeometry x="249.01710321627192" width="249.01710321627192" height="36.76000000000003" as="geometry" />
        </mxCell>
        <mxCell id="11IpipOqJez2AS0h7bXD-234" value="Closeout" style="strokeColor=#d3d3d5;fillColor=#0092b3;fontSize=10;strokeWidth=2;fontFamily=Helvetica;html=1;labelBackgroundColor=none;fontColor=#FFFFFF;" vertex="1" parent="11IpipOqJez2AS0h7bXD-231">
          <mxGeometry x="498.0342064325437" width="249.01750000000004" height="36.76000000000003" as="geometry" />
        </mxCell>
        <mxCell id="141" value="Proposal" style="strokeColor=#d3d3d5;fillColor=#004b8d;fontSize=10;strokeWidth=2;fontFamily=Helvetica;html=1;labelBackgroundColor=none;fontColor=#d3d3d5;" parent="1" vertex="1">
          <mxGeometry x="-1529.78" y="-856.76" width="249.01710321627192" height="36.76000000000003" as="geometry" />
        </mxCell>
        <mxCell id="142" value="Review" style="strokeColor=#d3d3d5;fillColor=#b3282e;fontSize=10;strokeWidth=2;fontFamily=Helvetica;html=1;labelBackgroundColor=none;fontColor=#FFFFFF;" parent="1" vertex="1">
          <mxGeometry x="-1280.7628967837281" y="-856.76" width="249.01710321627192" height="36.76000000000003" as="geometry" />
        </mxCell>
        <mxCell id="143" value="Deliberation" style="strokeColor=#d3d3d5;fillColor=#317f42;fontSize=10;strokeWidth=2;fontFamily=Helvetica;html=1;labelBackgroundColor=none;fontColor=#FFFFFF;" parent="1" vertex="1">
          <mxGeometry x="-1031.7457935674563" y="-856.76" width="249.01750000000004" height="36.76000000000003" as="geometry" />
        </mxCell>
      </root>
    </mxGraphModel>
  </diagram>
</mxfile>
